<svg width="30" height="37" viewBox="0 0 30 37" fill="none" xmlns="http://www.w3.org/2000/svg">
<path d="M27.2727 6.60714H25.6636C25.3823 5.83602 24.8617 5.1681 24.1733 4.69495C23.4848 4.2218 22.6622 3.96658 21.8182 3.96429H20.4545C20.4545 2.91289 20.0235 1.90456 19.2563 1.16111C18.4892 0.417665 17.4486 0 16.3636 0H13.6364C12.5514 0 11.5108 0.417665 10.7437 1.16111C9.97646 1.90456 9.54545 2.91289 9.54545 3.96429H8.18182C7.3378 3.96658 6.51518 4.2218 5.82673 4.69495C5.13828 5.1681 4.6177 5.83602 4.33636 6.60714H2.72727C2.00396 6.60714 1.31026 6.88559 0.7988 7.38122C0.287337 7.87685 0 8.54907 0 9.25V34.3571C0 35.0581 0.287337 35.7303 0.7988 36.2259C1.31026 36.7216 2.00396 37 2.72727 37H27.2727C27.996 37 28.6897 36.7216 29.2012 36.2259C29.7127 35.7303 30 35.0581 30 34.3571V9.25C30 8.54907 29.7127 7.87685 29.2012 7.38122C28.6897 6.88559 27.996 6.60714 27.2727 6.60714ZM8.18182 6.60714H9.54545C10.2688 6.60714 10.9625 6.3287 11.4739 5.83307C11.9854 5.33744 12.2727 4.66521 12.2727 3.96429C12.2727 3.61382 12.4164 3.27771 12.6721 3.02989C12.9279 2.78208 13.2747 2.64286 13.6364 2.64286H16.3636C16.7253 2.64286 17.0721 2.78208 17.3279 3.02989C17.5836 3.27771 17.7273 3.61382 17.7273 3.96429C17.7273 4.66521 18.0146 5.33744 18.5261 5.83307C19.0375 6.3287 19.7312 6.60714 20.4545 6.60714H21.8182C22.1798 6.60714 22.5267 6.74636 22.7824 6.99418C23.0382 7.242 23.1818 7.57811 23.1818 7.92857V9.25H6.81818V7.92857C6.81818 7.57811 6.96185 7.242 7.21758 6.99418C7.47331 6.74636 7.82016 6.60714 8.18182 6.60714ZM27.2727 34.3571H2.72727V9.25H4.09091C4.09091 9.95093 4.37825 10.6231 4.88971 11.1188C5.40117 11.6144 6.09486 11.8929 6.81818 11.8929H23.1818C23.9051 11.8929 24.5988 11.6144 25.1103 11.1188C25.6218 10.6231 25.9091 9.95093 25.9091 9.25H27.2727V34.3571Z" fill="white"/>
<path d="M23.1819 14.5356H6.81823C6.45657 14.5356 6.10972 14.6749 5.85399 14.9227C5.59826 15.1705 5.45459 15.5066 5.45459 15.8571C5.45459 16.2075 5.59826 16.5436 5.85399 16.7915C6.10972 17.0393 6.45657 17.1785 6.81823 17.1785H23.1819C23.5435 17.1785 23.8904 17.0393 24.1461 16.7915C24.4018 16.5436 24.5455 16.2075 24.5455 15.8571C24.5455 15.5066 24.4018 15.1705 24.1461 14.9227C23.8904 14.6749 23.5435 14.5356 23.1819 14.5356Z" fill="white"/>
<path d="M23.1819 21.1428H6.81823C6.45657 21.1428 6.10972 21.282 5.85399 21.5299C5.59826 21.7777 5.45459 22.1138 5.45459 22.4643C5.45459 22.8147 5.59826 23.1508 5.85399 23.3986C6.10972 23.6465 6.45657 23.7857 6.81823 23.7857H23.1819C23.5435 23.7857 23.8904 23.6465 24.1461 23.3986C24.4018 23.1508 24.5455 22.8147 24.5455 22.4643C24.5455 22.1138 24.4018 21.7777 24.1461 21.5299C23.8904 21.282 23.5435 21.1428 23.1819 21.1428Z" fill="white"/>
<path d="M15 27.75H6.81823C6.45657 27.75 6.10972 27.8892 5.85399 28.137C5.59826 28.3849 5.45459 28.721 5.45459 29.0714C5.45459 29.4219 5.59826 29.758 5.85399 30.0058C6.10972 30.2536 6.45657 30.3929 6.81823 30.3929H15C15.3617 30.3929 15.7085 30.2536 15.9643 30.0058C16.22 29.758 16.3637 29.4219 16.3637 29.0714C16.3637 28.721 16.22 28.3849 15.9643 28.137C15.7085 27.8892 15.3617 27.75 15 27.75Z" fill="white"/>
<path d="M14.0317 6.22397C14.1591 6.34644 14.3102 6.44334 14.4764 6.5091C14.6425 6.57486 14.8204 6.60819 14.9999 6.60718H15.259C15.3493 6.59493 15.4368 6.56814 15.518 6.5279C15.6018 6.50151 15.6802 6.46127 15.7499 6.40897L15.968 6.2504C16.0922 6.12473 16.1895 5.97653 16.2544 5.81433C16.3279 5.64727 16.365 5.46734 16.3635 5.28576C16.3702 5.19778 16.3702 5.10945 16.3635 5.02147C16.3486 4.93869 16.321 4.85852 16.2817 4.78361C16.2518 4.69941 16.2106 4.61942 16.159 4.54576L15.9953 4.34754C15.8686 4.22369 15.7177 4.12538 15.5516 4.05829C15.3854 3.99121 15.2072 3.95667 15.0271 3.95667C14.8471 3.95667 14.6689 3.99121 14.5027 4.05829C14.3365 4.12538 14.1857 4.22369 14.059 4.34754C13.9276 4.46882 13.8226 4.61427 13.75 4.77537C13.6774 4.93647 13.6388 5.10998 13.6362 5.28576C13.6384 5.45844 13.6754 5.62903 13.7453 5.7879C13.8102 5.95011 13.9075 6.0983 14.0317 6.22397Z" fill="white"/>
</svg>
